<?xml version="1.0" encoding="utf-8"?>
<!-- Generator: Adobe Illustrator 23.0.1, SVG Export Plug-In . SVG Version: 6.00 Build 0)  -->
<svg version="1.1" id="Livello_1" xmlns="http://www.w3.org/2000/svg" xmlns:xlink="http://www.w3.org/1999/xlink" x="0px" y="0px"
	 width="593.047px" height="579.687px" viewBox="0 0 593.047 579.687" enable-background="new 0 0 593.047 579.687"
	 xml:space="preserve">
<g>
	<g>
		<path fill="#009E62" d="M69.141,523.497c0,20.22-14.026,33.398-33.057,33.398c-8.286,0-15.61-2.8-20.842-8.767v31.56H0v-88.739
			h14.535v8.54c5.091-6.221,12.669-9.275,21.549-9.275C55.115,490.213,69.141,503.39,69.141,523.497 M53.645,523.497
			c0-12.414-8.287-20.36-19.259-20.36c-10.971,0-19.371,7.946-19.371,20.36c0,12.415,8.4,20.361,19.371,20.361
			C45.359,543.857,53.645,535.911,53.645,523.497"/>
		<rect x="83.626" y="465.601" fill="#009E62" width="15.242" height="90.436"/>
		<path fill="#95B849" d="M179.821,528.38h-51.099c1.837,9.502,9.756,15.61,21.096,15.61c7.323,0,13.037-2.319,17.674-7.098
			l8.172,9.389c-5.854,6.957-14.988,10.605-26.214,10.605c-21.804,0-35.971-13.998-35.971-33.369
			c0-19.399,14.28-33.284,33.652-33.284c19.003,0,32.916,13.263,32.916,33.652C180.047,525.1,179.934,526.91,179.821,528.38
			 M128.609,518.256h36.932c-1.217-9.388-8.4-15.864-18.41-15.864C137.262,502.392,130.079,508.755,128.609,518.256"/>
		<linearGradient id="SVGID_1_" gradientUnits="userSpaceOnUse" x1="222.2044" y1="531.3621" x2="245.6755" y2="490.709">
			<stop  offset="0" style="stop-color:#95B849"/>
			<stop  offset="1" style="stop-color:#FFCD00"/>
		</linearGradient>
		<path fill="url(#SVGID_1_)" d="M258.8,518.746c0-19.625-11.567-28.533-27.177-28.533c-9.502,0-17.447,3.167-22.453,9.162v-8.427
			h-14.479v65.098h15.215v-32.888c0-13.065,7.324-19.654,18.183-19.654c9.756,0,15.469,5.627,15.469,17.193v35.349H258.8V518.746"/>
		<linearGradient id="SVGID_2_" gradientUnits="userSpaceOnUse" x1="284.0346" y1="509.0182" x2="255.6078" y2="485.1652">
			<stop  offset="0" style="stop-color:#95B849"/>
			<stop  offset="1" style="stop-color:#FFCD00"/>
		</linearGradient>
		<path fill="url(#SVGID_2_)" d="M276.092,471.087c0-5.147,4.157-9.134,9.756-9.134c5.628,0,9.756,3.761,9.756,8.766
			c0,5.345-4.016,9.502-9.756,9.502C280.249,480.221,276.092,476.178,276.092,471.087 M278.156,490.939h15.242v65.098h-15.242
			V490.939z"/>
		<path fill="#009E62" d="M352.541,552.511c-3.649,2.913-9.135,4.412-14.649,4.412c-14.225,0-22.398-7.579-22.398-21.972v-31.333
			h-10.718v-12.188h10.718v-14.875h15.242v14.875h17.392v12.188h-17.392v30.965c0,6.362,3.167,9.756,9.021,9.756
			c3.167,0,6.194-0.848,8.513-2.658L352.541,552.511z"/>
		<path fill="#009E62" d="M428.117,490.951v65.098H413.61v-8.314c-4.865,5.995-12.556,9.162-20.955,9.162
			c-16.712,0-28.052-9.162-28.052-28.76v-37.187h15.214v35.122c0,11.792,5.628,17.42,15.27,17.42
			c10.577,0,17.788-6.589,17.788-19.626v-32.917H428.117z"/>
		<path fill="#009E62" d="M511.887,465.582v90.464h-14.649v-8.399c-5.146,6.193-12.669,9.247-21.576,9.247
			c-18.919,0-32.917-13.178-32.917-33.398c0-20.219,13.998-33.284,32.917-33.284c8.426,0,15.836,2.828,20.955,8.766v-33.397H511.887
			z M496.871,523.497c0-12.414-8.4-20.36-19.372-20.36s-19.371,7.946-19.371,20.36c0,12.415,8.399,20.361,19.371,20.361
			S496.871,535.911,496.871,523.497"/>
		<path fill="#009E62" d="M592.821,528.38h-51.099c1.837,9.502,9.756,15.61,21.096,15.61c7.296,0,13.036-2.319,17.674-7.098
			l8.172,9.389c-5.854,6.957-14.988,10.605-26.214,10.605c-21.804,0-35.971-13.998-35.971-33.369
			c0-19.399,14.28-33.284,33.652-33.284c19.003,0,32.916,13.263,32.916,33.652C593.047,525.1,592.934,526.91,592.821,528.38
			 M541.609,518.256h36.932c-1.217-9.388-8.427-15.864-18.41-15.864C550.262,502.392,543.078,508.755,541.609,518.256"/>
	</g>
	<g>
		
			<linearGradient id="SVGID_3_" gradientUnits="userSpaceOnUse" x1="266.4885" y1="1286.4636" x2="335.6199" y2="894.3993" gradientTransform="matrix(1 0 0 1 0 -825.2857)">
			<stop  offset="0" style="stop-color:#009E62"/>
			<stop  offset="0.2346" style="stop-color:#009E62"/>
			<stop  offset="0.6787" style="stop-color:#95B849"/>
			<stop  offset="0.7495" style="stop-color:#A7BC3C"/>
			<stop  offset="0.8916" style="stop-color:#D7C51B"/>
			<stop  offset="0.9987" style="stop-color:#FFCD00"/>
		</linearGradient>
		<path fill="url(#SVGID_3_)" d="M168.559,280.533c-8.083-1.347-16.704-2.964-24.786-7.274c0,0-1.886-1.347-1.886,0.808v16.434
			c-1.078,8.352,4.85,11.854,11.854,12.124c5.388,0.269-0.808,7.005-3.233,10.238c-4.041,4.85-4.85,8.352-2.964,10.777
			c1.617,1.886,2.964,0,8.083,4.58c-4.311,5.658-6.466,8.352-7.274,10.238c0,0-3.772,5.927,5.119,8.621l0,0
			c-2.155,7.274-5.927,8.352-8.083,12.393c-1.886,4.58,4.85,8.352,4.311,8.621c-10.777,7.005-18.59,14.818-19.937,19.937
			c-3.772,11.046-5.927,23.709-8.352,34.485c-0.808,3.502-4.85,6.735-8.083,6.735c-10.507,0.539-18.32,0-27.481,0
			c-2.964,0-1.617-2.155-1.617-2.155c9.43-17.512,31.252-31.522,28.019-53.345c-9.43-57.655-26.403-95.104-35.833-145.755
			c-3.772-19.398,3.502-49.034,5.927-51.459c1.886-1.886,6.197,7.544,13.201,7.274c0,0,10.777-13.74,17.243-16.704
			c4.85-0.808,24.248,6.735,24.248,6.735c2.155-0.539,5.119-12.124,6.197-18.051c4.85,1.347,12.663,1.617,18.32-0.808
			c12.663-5.388,12.124-9.968,14.279-9.699c3.772,0.539,7.544,7.813,7.813,12.393c0,0,0,4.85,2.425,4.311
			c7.544-1.886,13.201-10.777,15.896-10.507c2.964,0.539,6.197,8.352,7.005,14.279c0,0,0.539,3.502,4.85,1.617
			c3.772-1.617,5.927-2.694,12.393-7.544c0.808-0.539,1.886,0,2.155,0.808c3.502,7.005,3.772,13.74,8.083,14.279
			c3.502,0.269,6.735-2.425,8.352-4.311c1.347-1.617,4.85-4.85,6.197-4.58s2.155,8.621,8.352,11.854
			c2.694,1.617,4.85-0.808,6.466-4.85c1.078-2.694,3.772-5.658,4.85-5.388c1.078,0.269,2.155,4.85,5.927,7.005
			c2.964,1.617,6.466,2.155,7.005,0.269c1.078-4.85,4.85-8.352,5.388-6.735c1.078,2.155,2.425,3.233,4.85,5.119
			c2.694,1.617,4.85,2.155,7.544,1.617c9.16-1.078,15.626-8.352,14.01-9.43c-8.352-4.85-11.585-14.01-12.393-20.476
			c0.269-3.772,0.269-13.74,9.43-17.782c4.311-1.617,11.585-1.617,15.087,1.347c3.233,2.694,5.119,5.658,5.119,10.507
			c0,4.041-1.078,7.813-4.311,9.699c-2.425,1.617-7.005,1.347-9.43-0.539c-2.155-1.617-3.233-5.119-5.119-6.466h-0.269
			c-1.886,4.58,1.347,9.699,3.772,12.932c5.119,5.927,13.74,5.388,16.165,3.772l0,0c9.968-3.772,18.051-24.248,19.937-28.558
			c4.041-9.43,7.005-20.206,12.393-29.905c4.85-8.352,16.704-18.051,35.563-18.051c15.896,0,33.947,14.279,34.755,35.024
			c1.078,17.782-5.119,24.248-11.854,31.791c-4.311,4.85-4.85,6.197-3.233,7.544c4.85,4.041,6.466,4.58,10.238,8.891
			c15.896,19.398,22.9,42.029,31.522,64.391c2.155,5.388,3.233,11.585,5.927,16.704c12.124,15.626,23.978,20.745,25.595,22.631
			c1.078,1.347-1.347,1.617-1.617,5.119c0,1.078,2.155,3.233,4.311,3.502c1.078,0,6.197,0.808,5.388,2.425
			c-3.233,4.85-4.85,8.352-4.58,11.585c0.539,3.772,2.425,0,7.813,0.539c1.347,0.269,1.617,0.808,1.078,1.886
			c-2.964,4.85-3.502,7.813-4.041,11.046c-0.808,2.155,1.347,7.813,6.735,6.735c0.539,0,1.078,0.539,1.078,1.078
			c-0.539,1.617-3.502,2.964-4.85,7.813c-2.964,10.238-1.347,16.704,7.544,26.672c3.502,4.311,5.658,4.041,8.352,7.274l0,0
			c-11.046,9.699-9.16,23.439-11.316,31.252c-0.539,2.425-2.425,2.694-2.425,2.694l-33.408,5.119
			c-2.694,0.539-4.85-0.539-1.617-4.58c8.352-9.699,18.859-19.667,24.786-29.905l0,0c-1.078-3.502-2.694-7.544-5.119-11.585
			c-11.046-17.782-21.015-34.216-31.252-51.998c-5.658-10.238-8.352-9.699-8.352-9.699c-24.786-4.58-40.413-8.621-58.733-20.476
			c-1.347-0.539-1.347,1.347-1.347,1.347c0,4.85-0.808,21.823,1.347,24.786c5.927,8.621,18.051,9.968,18.051,9.968l0,0
			c0,0,1.617,2.964-4.041,8.083c0,0-1.347,0.808-0.808,1.886c1.078,2.155,4.041,2.425,6.466,1.886
			c1.617-0.269-0.808,4.041-5.388,8.352c-1.078,1.078,0.269,4.58,1.886,5.388c0.539,0.269,0.539,0.539,0.269,1.078
			c-1.617,1.886-8.352,7.274-8.352,11.046l1.347,22.092c0,0,0,0.808-0.269,1.078c-0.539,0.539-1.617,0.808-1.617,0.808
			l-32.869,8.352c-0.808,0.269-1.886,0-2.694-1.078c-0.808-1.347,0.269-2.964,0.269-2.964l20.206-30.444l1.078-1.617
			c1.347-7.005-4.85-13.471-8.891-18.59c-7.274-8.891-18.051-19.129-18.051-19.129c-5.927-5.119-10.238-24.248-11.585-29.636
			c-0.539-1.886-2.694-1.347-4.58,0.539c-4.58,4.58-8.352,9.699-9.968,12.932c-1.617,2.964-2.155,10.777-1.617,11.854
			c0.808,2.155,2.155,5.658,9.968,5.658l0,0c-0.808,4.85-1.886,7.005-4.58,9.16c0,0-1.617,0.539-0.539,1.617
			c2.425,2.155,5.388,4.311,5.388,4.311c-1.078,3.233-2.425,5.658-4.311,8.083c-4.85,6.197,1.617,4.85,1.617,4.85
			c-1.617,4.311-2.694,7.005-4.85,10.777c-5.388,9.16-1.617,22.631-2.694,29.366c-0.269,1.617-2.155,2.964-4.58,3.233l-34.485,1.347
			c-1.886,0-1.617-2.425-0.808-4.041l23.709-28.828c1.886-2.425,0-4.311-0.808-5.119c0,0-14.818-20.206-19.937-36.641
			c-1.886-6.466-3.772-15.087-3.772-15.087c-4.85,0.808-18.859,2.425-18.051,9.699c-1.347,3.233,2.964,14.818,5.658,14.818
			c0,0-0.269,0.539,0,0c0,0,0.269,3.502-4.58,5.119c-5.388,1.617-11.046,5.927-10.238,8.352c0.808,1.617,3.502,2.425,4.58,2.425
			v0.269c-4.85,7.005-10.238,5.388-14.818,8.891c-1.617,1.347-1.617,4.041,3.233,4.041l0,0c-4.041,4.58-6.466,3.772-9.16,5.119
			c0,0-4.58,1.617-3.772,3.502c2.155,4.58,2.964,3.502,1.617,5.119c-2.155,2.694-2.964,3.233-6.466,4.311
			c-2.964,1.078-4.85,2.425-4.85,2.425c-2.425,2.425-1.617,4.85-3.233,9.16c-2.425,6.466-6.466,14.818-11.046,20.476
			c0,0-0.808,1.078-1.617,0.269l-21.553-18.051c-1.886-1.617-0.808-4.041-0.808-4.041c2.155-4.58,6.466-5.927,11.046-8.621
			c5.927-3.772,11.585-7.274,17.243-13.471c1.347-1.347,1.617-4.58,1.617-4.58c2.694-16.973,7.813-35.833,11.585-52.267
			c1.078-4.85-4.58-4.041-4.58-4.041c-7.544,1.347-13.471,2.694-19.398,2.155c-1.617-0.269-2.155,0.808-4.041,4.311
			c-1.886,4.58-4.85,14.549-2.155,18.051c4.85,6.197,10.238,4.041,9.968,4.58c-1.617,6.197-7.005,8.621-8.621,10.507
			c-2.425,1.886-2.964,3.502-3.233,4.311c0,1.078,0.269,4.58,5.658,3.772v0.539c0,0-1.886,4.58-6.735,8.352
			c-1.886,1.617-4.58,3.502-5.388,4.85c-1.078,1.347-1.347,4.041,2.964,4.041v1.078c0,0-2.425,6.466-7.544,8.891
			c-1.617,0.808-4.85,3.772-6.197,6.735c-3.233,7.005-7.005,25.325-9.968,23.439c-5.927-4.311-20.206-17.512-20.206-17.512
			c-1.617-1.347-1.617-2.425-1.617-2.425c-0.808-3.233,6.735-6.466,9.43-8.891c4.311-3.772,10.507-6.735,11.316-14.818
			c1.347-11.585-2.694-22.631-4.311-29.636c-1.617-7.813-4.85-21.823-4.311-29.366C169.636,280.802,168.559,280.533,168.559,280.533
			z M343.141,163.336c-0.539,0.539-0.539,1.078,0.269,1.078c7.005,0,15.087-3.772,21.823-8.083
			c5.927-3.772,10.238-7.005,16.704-15.626c0,0,3.502,0.808,16.434,0c13.201-0.808,21.823-9.16,22.362-21.553
			c0.808-14.818-13.201-28.019-28.558-23.709c-11.046,2.964-14.549,11.046-18.59,18.051c-7.005,11.854-15.087,33.138-29.636,48.495
			C343.949,162.528,343.68,162.798,343.141,163.336 M244.534,169.802c1.347-1.617,5.119-5.388,6.197-4.58
			c2.155,1.617,2.155,8.621,8.352,11.854"/>
		
			<linearGradient id="SVGID_4_" gradientUnits="userSpaceOnUse" x1="30.829" y1="938.833" x2="188.7394" y2="881.3582" gradientTransform="matrix(1 0 0 1 0 -825.2857)">
			<stop  offset="0" style="stop-color:#009E62"/>
			<stop  offset="0.5762" style="stop-color:#95B849"/>
			<stop  offset="0.9954" style="stop-color:#D5D625"/>
		</linearGradient>
		<path fill="url(#SVGID_4_)" d="M145.119,73.351c7.005-5.927,12.932-10.238,37.18-22.362c2.155-1.347-2.155-16.165-4.58-25.864
			c-0.808-3.502-3.502-4.311-4.85-4.041c-30.714,8.083-57.925,22.362-64.391,16.165l0,0L77.496,13.81
			c-2.425-1.886-5.119-0.269-4.85,2.964c1.616,11.854,2.964,18.859,4.041,26.403c0.269,1.617,0,2.425-1.347,2.425
			c-7.005,0-13.74,4.85-17.782,12.124C52.17,68.232,46.782,77.392,37.083,81.972c-0.539,0.269-0.808,1.078-0.539,1.617
			c1.886,4.041,5.388,6.197,8.891,7.274c4.041,1.347,5.658,0.539,8.621,1.886c0.539,0.269,0.808,0.808,0.539,1.347
			c-0.269,0.808-0.808,1.617-1.347,2.155c-8.083,14.279,1.347,32.33-12.393,43.646c-0.808,0.539-0.539,1.617,0.539,1.886
			c15.626,2.694,20.745-8.621,22.631-6.466c-4.85,14.549-2.425,16.434-5.388,34.485c-0.808,4.041-3.502,9.43-1.078,8.621
			c20.476-5.927,24.248-14.279,25.595-15.626c1.617-1.617,1.886-5.658,6.735,1.886c1.078,1.617,2.425,3.772,3.233,3.233
			c0.539,0,1.617-1.347,1.617-1.617c4.041-5.658,8.891-8.891,14.818-11.585c0.269,0,0.539-0.269,0.808-0.269
			c7.005,0.808,13.201,3.233,21.553,6.466c0.539,0.269,1.347,0,1.617-0.808c3.502-11.585-2.155-22.362-1.886-23.978
			s1.078-0.808,4.041,2.155c6.197,6.197,16.165,6.735,21.823,5.119c2.964-0.808,7.274-2.964,8.352-4.85
			c0.539-0.808,0-1.617-0.808-1.617c-17.512-2.425-18.32-20.476-25.595-32.6c-0.539-0.808-0.808-1.617-0.539-1.886l5.388,2.694
			c0,0,24.517,5.119,25.595,5.388c2.425,0.539,3.772-2.425,3.772-2.425c0.269-0.808,1.617-6.735,1.617-11.854
			c0-2.425-2.694-3.772-3.772-2.694c-0.539,0.539-1.078,1.078-1.617,1.347c-0.269,0.539-1.347,0.539-1.886,0.269
			c-6.197-1.617-8.352-2.155-15.087-4.85l-8.621-14.279C142.695,74.698,144.311,73.89,145.119,73.351z M122.758,66.077
			c-3.772,0-7.005-3.233-7.005-7.813s3.233-7.813,7.005-7.813c4.58,0,7.813,3.233,7.813,7.813
			C130.571,62.844,127.338,66.077,122.758,66.077z"/>
		
			<linearGradient id="SVGID_5_" gradientUnits="userSpaceOnUse" x1="247.2058" y1="935.1371" x2="302.8257" y2="838.8004" gradientTransform="matrix(1 0 0 1 0 -825.2857)">
			<stop  offset="0" style="stop-color:#95B849"/>
			<stop  offset="0.0092" style="stop-color:#97B848"/>
			<stop  offset="0.2123" style="stop-color:#BCC02E"/>
			<stop  offset="0.4152" style="stop-color:#D9C61A"/>
			<stop  offset="0.6154" style="stop-color:#EECA0C"/>
			<stop  offset="0.8119" style="stop-color:#FBCC03"/>
			<stop  offset="1" style="stop-color:#FFCD00"/>
		</linearGradient>
		<path fill="url(#SVGID_5_)" d="M248.576,104.065l28.019-24.786c0,0,3.502-3.772,7.544-2.155c2.694,1.078,4.041,3.502,4.58,4.85
			c0.808,1.617,11.585,25.325,11.585,25.325s1.616,4.041,5.119,3.772c0,0,4.311-0.808,4.311-5.388l-1.616-27.75
			c0,0-0.269-4.58,2.155-5.658c1.617-0.808,3.772-0.808,5.658,0.808c1.886,1.347,12.663,9.699,12.663,9.699
			c8.083,5.927,12.663,0.808,11.585-3.233c-1.347-4.311-7.813-12.663-7.813-12.663c-0.269-0.269-7.005-9.699-8.083-11.585
			c-1.078-1.886-2.155-3.772-1.617-5.658c0.808-1.886,2.425-2.694,2.425-2.694s1.617-0.808,3.772-0.269
			c2.425,0.539,6.197-1.347,3.502-5.119c0,0-5.658-8.083-18.051-13.74c5.119,9.699,5.119,21.553-1.347,30.175
			c-9.16,12.124-27.211,13.74-40.682,3.772c-13.201-10.238-16.704-28.019-7.544-40.413c6.735-8.891,18.051-12.124,28.828-9.16l0,0
			c-5.927-5.658-11.046-8.621-11.046-8.621c-15.087-8.891-14.549,1.617-14.549,1.617s0.269,4.85-0.539,5.927
			c-0.808,1.347-1.617,3.233-11.046,1.616c-8.083-1.347-8.891-1.616-9.16-1.616c-16.165-3.233-18.32-3.502-20.206,0.269
			c-1.886,4.311,7.544,9.968,7.544,9.968l14.01,8.352c0,0,1.617,1.347,1.617,2.964c0,1.617-0.539,2.155-2.694,3.233
			c-2.155,1.078-29.367,11.854-29.905,12.124c0,0-4.85,2.155-2.155,6.466c1.078,1.078,2.694,1.617,5.119,1.617
			c3.772-0.808,26.403-0.808,26.403-0.808s4.85-0.539,7.005,2.694c1.617,2.425-0.539,7.813-0.539,7.813L237.799,97.06
			c0,0-2.964,5.658,0.808,8.621C243.996,108.645,248.576,104.065,248.576,104.065z"/>
	</g>
</g>
</svg>
